<svg xmlns="http://www.w3.org/2000/svg" viewBox="0 0 160.10664 156.98515">
  <g fill="#248DEB">
    <path d="M0 0l137.115 145.238s4.67 3.295 8.243-.55c3.573-3.843.825-7.687.825-7.687L0 0zM43.415 13.728L147.83 126.294s4.673 3.295 8.245-.55c3.572-3.843.824-7.687.824-7.687L43.414 13.727zM12.915 43.105L117.33 155.67s4.672 3.296 8.244-.548.825-7.688.825-7.688L12.914 43.104zM80.117 25.533l72.95 78.644s3.263 2.3 5.76-.384c2.494-2.685.575-5.37.575-5.37l-79.285-72.89zM22.963 77.15l72.95 78.642s3.263 2.302 5.758-.383c2.497-2.687.577-5.372.577-5.372l-79.284-72.89zM117.606 42.556l33.063 35.752s1.613 1.078 2.848-.18c1.234-1.258.285-2.517.285-2.517l-36.197-33.054zM41.217 113.39l33.063 35.752s1.614 1.08 2.85-.18c1.233-1.258.284-2.516.284-2.516L41.217 113.39z"/>
  </g>
</svg>
